<mxfile host="app.diagrams.net" modified="2021-11-18T07:28:44.728Z" agent="5.0 (Windows NT 10.0; Win64; x64) AppleWebKit/537.36 (KHTML, like Gecko) Chrome/95.0.4638.69 Safari/537.36" etag="R546gcnaKUidDZ-tdI1x" version="15.8.2" type="github">
  <diagram id="C5RBs43oDa-KdzZeNtuy" name="Page-1">
    <mxGraphModel dx="1673" dy="979" grid="1" gridSize="10" guides="1" tooltips="1" connect="1" arrows="1" fold="1" page="1" pageScale="1" pageWidth="827" pageHeight="1169" math="0" shadow="0">
      <root>
        <mxCell id="WIyWlLk6GJQsqaUBKTNV-0" />
        <mxCell id="WIyWlLk6GJQsqaUBKTNV-1" parent="WIyWlLk6GJQsqaUBKTNV-0" />
        <mxCell id="XAQtGEDU0KhMq1ojgkvV-35" value="" style="edgeStyle=none;rounded=0;orthogonalLoop=1;jettySize=auto;html=1;fontSize=13;endArrow=none;endFill=0;startArrow=ERzeroToMany;startFill=0;" edge="1" parent="WIyWlLk6GJQsqaUBKTNV-1" source="XAQtGEDU0KhMq1ojgkvV-16" target="XAQtGEDU0KhMq1ojgkvV-34">
          <mxGeometry relative="1" as="geometry" />
        </mxCell>
        <mxCell id="XAQtGEDU0KhMq1ojgkvV-16" value="치킨" style="whiteSpace=wrap;html=1;aspect=fixed;" vertex="1" parent="WIyWlLk6GJQsqaUBKTNV-1">
          <mxGeometry x="360" y="290" width="80" height="80" as="geometry" />
        </mxCell>
        <mxCell id="XAQtGEDU0KhMq1ojgkvV-22" style="edgeStyle=none;rounded=0;orthogonalLoop=1;jettySize=auto;html=1;fontSize=13;endArrow=none;endFill=0;" edge="1" parent="WIyWlLk6GJQsqaUBKTNV-1" source="XAQtGEDU0KhMq1ojgkvV-17" target="XAQtGEDU0KhMq1ojgkvV-18">
          <mxGeometry relative="1" as="geometry" />
        </mxCell>
        <mxCell id="XAQtGEDU0KhMq1ojgkvV-23" style="edgeStyle=none;rounded=0;orthogonalLoop=1;jettySize=auto;html=1;entryX=0;entryY=0.5;entryDx=0;entryDy=0;fontSize=13;endArrow=none;endFill=0;" edge="1" parent="WIyWlLk6GJQsqaUBKTNV-1" source="XAQtGEDU0KhMq1ojgkvV-17" target="XAQtGEDU0KhMq1ojgkvV-21">
          <mxGeometry relative="1" as="geometry" />
        </mxCell>
        <mxCell id="XAQtGEDU0KhMq1ojgkvV-24" style="edgeStyle=none;rounded=0;orthogonalLoop=1;jettySize=auto;html=1;entryX=0.5;entryY=0;entryDx=0;entryDy=0;fontSize=13;endArrow=none;endFill=0;" edge="1" parent="WIyWlLk6GJQsqaUBKTNV-1" source="XAQtGEDU0KhMq1ojgkvV-17" target="XAQtGEDU0KhMq1ojgkvV-19">
          <mxGeometry relative="1" as="geometry" />
        </mxCell>
        <mxCell id="XAQtGEDU0KhMq1ojgkvV-25" style="edgeStyle=none;rounded=0;orthogonalLoop=1;jettySize=auto;html=1;entryX=0.5;entryY=0;entryDx=0;entryDy=0;fontSize=13;endArrow=none;endFill=0;" edge="1" parent="WIyWlLk6GJQsqaUBKTNV-1" source="XAQtGEDU0KhMq1ojgkvV-17" target="XAQtGEDU0KhMq1ojgkvV-20">
          <mxGeometry relative="1" as="geometry" />
        </mxCell>
        <mxCell id="XAQtGEDU0KhMq1ojgkvV-36" style="edgeStyle=none;rounded=0;orthogonalLoop=1;jettySize=auto;html=1;exitX=0.5;exitY=0;exitDx=0;exitDy=0;fontSize=13;endArrow=none;endFill=0;startArrow=ERone;startFill=0;" edge="1" parent="WIyWlLk6GJQsqaUBKTNV-1" source="XAQtGEDU0KhMq1ojgkvV-17" target="XAQtGEDU0KhMq1ojgkvV-34">
          <mxGeometry relative="1" as="geometry" />
        </mxCell>
        <mxCell id="XAQtGEDU0KhMq1ojgkvV-17" value="사용자" style="whiteSpace=wrap;html=1;aspect=fixed;" vertex="1" parent="WIyWlLk6GJQsqaUBKTNV-1">
          <mxGeometry x="360" y="545" width="80" height="80" as="geometry" />
        </mxCell>
        <mxCell id="XAQtGEDU0KhMq1ojgkvV-18" value="아이디" style="ellipse;whiteSpace=wrap;html=1;" vertex="1" parent="WIyWlLk6GJQsqaUBKTNV-1">
          <mxGeometry x="120" y="545" width="120" height="80" as="geometry" />
        </mxCell>
        <mxCell id="XAQtGEDU0KhMq1ojgkvV-19" value="주소" style="ellipse;whiteSpace=wrap;html=1;" vertex="1" parent="WIyWlLk6GJQsqaUBKTNV-1">
          <mxGeometry x="200" y="720" width="120" height="80" as="geometry" />
        </mxCell>
        <mxCell id="XAQtGEDU0KhMq1ojgkvV-20" value="연락처" style="ellipse;whiteSpace=wrap;html=1;" vertex="1" parent="WIyWlLk6GJQsqaUBKTNV-1">
          <mxGeometry x="480" y="720" width="120" height="80" as="geometry" />
        </mxCell>
        <mxCell id="XAQtGEDU0KhMq1ojgkvV-21" value="이름" style="ellipse;whiteSpace=wrap;html=1;" vertex="1" parent="WIyWlLk6GJQsqaUBKTNV-1">
          <mxGeometry x="550" y="545" width="120" height="80" as="geometry" />
        </mxCell>
        <mxCell id="XAQtGEDU0KhMq1ojgkvV-30" style="edgeStyle=none;rounded=0;orthogonalLoop=1;jettySize=auto;html=1;entryX=0;entryY=0.425;entryDx=0;entryDy=0;entryPerimeter=0;fontSize=13;endArrow=none;endFill=0;" edge="1" parent="WIyWlLk6GJQsqaUBKTNV-1" source="XAQtGEDU0KhMq1ojgkvV-26" target="XAQtGEDU0KhMq1ojgkvV-16">
          <mxGeometry relative="1" as="geometry" />
        </mxCell>
        <mxCell id="XAQtGEDU0KhMq1ojgkvV-26" value="이름" style="ellipse;whiteSpace=wrap;html=1;" vertex="1" parent="WIyWlLk6GJQsqaUBKTNV-1">
          <mxGeometry x="120" y="280" width="120" height="80" as="geometry" />
        </mxCell>
        <mxCell id="XAQtGEDU0KhMq1ojgkvV-31" style="edgeStyle=none;rounded=0;orthogonalLoop=1;jettySize=auto;html=1;fontSize=13;endArrow=none;endFill=0;" edge="1" parent="WIyWlLk6GJQsqaUBKTNV-1" source="XAQtGEDU0KhMq1ojgkvV-27" target="XAQtGEDU0KhMq1ojgkvV-16">
          <mxGeometry relative="1" as="geometry" />
        </mxCell>
        <mxCell id="XAQtGEDU0KhMq1ojgkvV-27" value="맛" style="ellipse;whiteSpace=wrap;html=1;" vertex="1" parent="WIyWlLk6GJQsqaUBKTNV-1">
          <mxGeometry x="200" y="120" width="120" height="80" as="geometry" />
        </mxCell>
        <mxCell id="XAQtGEDU0KhMq1ojgkvV-32" style="edgeStyle=none;rounded=0;orthogonalLoop=1;jettySize=auto;html=1;fontSize=13;endArrow=none;endFill=0;" edge="1" parent="WIyWlLk6GJQsqaUBKTNV-1" source="XAQtGEDU0KhMq1ojgkvV-28" target="XAQtGEDU0KhMq1ojgkvV-16">
          <mxGeometry relative="1" as="geometry" />
        </mxCell>
        <mxCell id="XAQtGEDU0KhMq1ojgkvV-28" value="브랜드" style="ellipse;whiteSpace=wrap;html=1;" vertex="1" parent="WIyWlLk6GJQsqaUBKTNV-1">
          <mxGeometry x="480" y="120" width="120" height="80" as="geometry" />
        </mxCell>
        <mxCell id="XAQtGEDU0KhMq1ojgkvV-33" style="edgeStyle=none;rounded=0;orthogonalLoop=1;jettySize=auto;html=1;entryX=1;entryY=0.4;entryDx=0;entryDy=0;entryPerimeter=0;fontSize=13;endArrow=none;endFill=0;" edge="1" parent="WIyWlLk6GJQsqaUBKTNV-1" source="XAQtGEDU0KhMq1ojgkvV-29" target="XAQtGEDU0KhMq1ojgkvV-16">
          <mxGeometry relative="1" as="geometry" />
        </mxCell>
        <mxCell id="XAQtGEDU0KhMq1ojgkvV-29" value="가격" style="ellipse;whiteSpace=wrap;html=1;" vertex="1" parent="WIyWlLk6GJQsqaUBKTNV-1">
          <mxGeometry x="550" y="280" width="120" height="80" as="geometry" />
        </mxCell>
        <mxCell id="XAQtGEDU0KhMq1ojgkvV-34" value="추천" style="rhombus;whiteSpace=wrap;html=1;" vertex="1" parent="WIyWlLk6GJQsqaUBKTNV-1">
          <mxGeometry x="360" y="400" width="80" height="80" as="geometry" />
        </mxCell>
      </root>
    </mxGraphModel>
  </diagram>
</mxfile>
